
<svg
  xmlns="http://www.w3.org/2000/svg"
  width="100"
  height="100"
  viewBox="0 0 122 122"
>
  <path
    id="icons8-instagram_1_"
    data-name="icons8-instagram (1)"
    d="M38.573,3A35.626,35.626,0,0,0,3,38.593V89.427A35.626,35.626,0,0,0,38.593,125H89.427A35.626,35.626,0,0,0,125,89.407V38.573A35.626,35.626,0,0,0,89.407,3Zm61.01,20.333A5.083,5.083,0,1,1,94.5,28.417,5.085,5.085,0,0,1,99.583,23.333ZM64,33.5A30.5,30.5,0,1,1,33.5,64,30.531,30.531,0,0,1,64,33.5Zm0,10.167A20.333,20.333,0,1,0,84.333,64,20.333,20.333,0,0,0,64,43.667Z"
    transform="translate(-3 -3)"
  />
</svg>