<svg
  xmlns="http://www.w3.org/2000/svg"
  width="100"
  height="100"
  viewBox="0 0 122 122"
>
  <path
    id="icons8-linkedin_2_"
    data-name="icons8-linkedin (2)"
    d="M114.909,4H15.091A11.088,11.088,0,0,0,4,15.091v99.818A11.088,11.088,0,0,0,15.091,126h99.818A11.088,11.088,0,0,0,126,114.909V15.091A11.088,11.088,0,0,0,114.909,4ZM42.563,103.818H26.2V51.181H42.563ZM34.217,43.656a9.535,9.535,0,1,1,9.533-9.538A9.538,9.538,0,0,1,34.217,43.656Zm69.623,60.163H87.492V78.22c0-6.106-.111-13.958-8.5-13.958-8.512,0-9.821,6.649-9.821,13.514v26.041H52.822V51.181H68.516v7.192h.222c2.185-4.137,7.52-8.5,15.477-8.5,16.564,0,19.625,10.9,19.625,25.077v28.87Z"
    transform="translate(-4 -4)"
  />
</svg>