<svg
  xmlns="http://www.w3.org/2000/svg"
  width="100"
  height="100"
  viewBox="0 0 147.954 120.233"
>
  <path
    id="icons8-twitter"
    d="M147.9,19.846a60.719,60.719,0,0,1-17.446,4.785A30.43,30.43,0,0,0,143.8,7.843a60.951,60.951,0,0,1-19.28,7.357A30.368,30.368,0,0,0,72.806,42.885,86.19,86.19,0,0,1,10.239,11.164a30.42,30.42,0,0,0,9.4,40.543A30.327,30.327,0,0,1,5.88,47.9v.381A30.4,30.4,0,0,0,30.222,78.055a30.373,30.373,0,0,1-7.991,1.061,29.241,29.241,0,0,1-5.719-.553,30.424,30.424,0,0,0,28.355,21.09A60.848,60.848,0,0,1,7.171,112.636a59.683,59.683,0,0,1-7.23-.427,85.761,85.761,0,0,0,46.527,13.641c55.833,0,86.367-46.251,86.367-86.355,0-1.315-.035-2.641-.081-3.932A61.707,61.707,0,0,0,147.9,19.846Z"
    transform="translate(0.059 -5.617)"
  />
</svg>