<svg xmlns="http://www.w3.org/2000/svg" xmlns:xlink="http://www.w3.org/1999/xlink" viewBox="0 0 49.69 61.61"><defs><style>.cls-1{fill:none;}.cls-2{fill:#1d1d1b;}.cls-3{isolation:isolate;}.cls-4{clip-path:url(#clip-path);}.cls-5{clip-path:url(#clip-path-2);}</style><clipPath id="clip-path"><polygon class="cls-1" points="26.56 52.55 26.42 23.34 49.55 14.47 49.69 43.67 26.56 52.55"/></clipPath><clipPath id="clip-path-2"><polygon class="cls-1" points="0.07 43.67 0.21 14.47 23.34 23.34 23.2 52.55 0.07 43.67"/></clipPath></defs><g id="Layer_2" data-name="Layer 2"><g id="Layer_1-2" data-name="Layer 1"><polygon class="cls-2" points="24.11 58.41 0 48.63 0 51.82 24.13 61.61 49.64 50.95 49.64 47.74 24.11 58.41"/><g class="cls-3"><g class="cls-4"><polyline class="cls-2" points="41.94 17.39 34.29 20.32 38.2 27.31 41.94 17.39"/><polyline class="cls-2" points="26.87 23.17 26.42 23.34 26.56 52.55 26.68 52.51 34.51 34.65 26.87 23.17"/><polygon class="cls-2" points="49.55 14.47 49.14 14.62 41.61 31.79 49.59 43.71 49.64 43.69 49.64 33.42 49.55 14.47"/><polygon class="cls-2" points="49.64 33.42 49.64 43.69 49.69 43.67 49.64 33.42"/><polyline class="cls-2" points="38.01 39.34 34.03 49.68 42.04 46.61 38.01 39.34"/></g></g><g class="cls-3"><g class="cls-5"><path class="cls-2" d="M16.15,20.58,7.4,17.23,7.32,33.35A14.58,14.58,0,0,0,7.86,38a6,6,0,0,0,3.81,3.92q2.92,1.13,3.82-1a11,11,0,0,0,.58-4.18l.08-16.13"/><path class="cls-2" d="M23.34,23.34l-2.27-.87L21,38.6q0,4.66-1.18,6.83-2.16,3.95-8.17,1.63a13.3,13.3,0,0,1-8.13-7.89,22.2,22.2,0,0,1-1.11-7.7l.08-16.13L.21,14.47.07,43.67l23.12,8.88.15-29.21"/></g></g><polygon class="cls-2" points="0.21 10.72 24.73 20.33 49.55 10.72 24.73 0 0.21 10.72"/></g></g></svg>