<svg xmlns="http://www.w3.org/2000/svg" xmlns:xlink="http://www.w3.org/1999/xlink" width="322" height="322" viewBox="0 0 322 322">
  <defs>
    <clipPath id="clip-path">
      <circle id="Ellipse_27" data-name="Ellipse 27" cx="161" cy="161" r="161" fill="none"/>
    </clipPath>
  </defs>
  <g id="Print_Design" data-name="Print Design" transform="translate(-799 -6997)">
    <circle id="Ellipse_26" data-name="Ellipse 26" cx="161" cy="161" r="161" transform="translate(799 6997)" fill="#ffffb1"/>
    <g id="Layer_8" transform="translate(799 6997)">
      <g id="Group_66" data-name="Group 66" transform="translate(0 0)" clip-path="url(#clip-path)">
        <g id="Group_59" data-name="Group 59" transform="translate(-36.407 -8.225)">
          <path id="Path_858" data-name="Path 858" d="M335.088,324.217H-60.33V-13.63H335.088Zm-386.366-9.052H326.036V-4.578H-51.278V315.165Z" transform="translate(60.33 13.63)" fill="#cfe0f4"/>
          <rect id="Rectangle_42" data-name="Rectangle 42" width="386.366" height="9.052" transform="translate(4.526 274)" fill="#cfe0f4"/>
          <rect id="Rectangle_43" data-name="Rectangle 43" width="386.366" height="9.052" transform="translate(4.526 219.199)" fill="#cfe0f4"/>
          <rect id="Rectangle_44" data-name="Rectangle 44" width="386.366" height="9.052" transform="translate(4.526 164.398)" fill="#cfe0f4"/>
          <rect id="Rectangle_45" data-name="Rectangle 45" width="386.366" height="9.052" transform="translate(4.526 109.602)" fill="#cfe0f4"/>
          <rect id="Rectangle_46" data-name="Rectangle 46" width="386.366" height="9.052" transform="translate(4.526 54.801)" fill="#cfe0f4"/>
          <rect id="Rectangle_47" data-name="Rectangle 47" width="9.052" height="328.795" transform="translate(321.976 4.526)" fill="#cfe0f4"/>
          <rect id="Rectangle_48" data-name="Rectangle 48" width="9.052" height="328.795" transform="translate(257.579 4.526)" fill="#cfe0f4"/>
          <rect id="Rectangle_49" data-name="Rectangle 49" width="9.052" height="328.795" transform="translate(193.183 4.526)" fill="#cfe0f4"/>
          <rect id="Rectangle_50" data-name="Rectangle 50" width="9.052" height="328.795" transform="translate(128.793 4.526)" fill="#cfe0f4"/>
          <rect id="Rectangle_51" data-name="Rectangle 51" width="9.052" height="328.795" transform="translate(64.396 4.526)" fill="#cfe0f4"/>
        </g>
        <g id="Group_60" data-name="Group 60" transform="translate(-32.183 -4.001)">
          <path id="Path_859" data-name="Path 859" d="M333.64,322.769H-53.33V-6.63H333.64Zm-386.366-.6H333.036V-6.027H-52.727V322.165Z" transform="translate(53.33 6.63)" fill="#1d1d1b"/>
          <rect id="Rectangle_52" data-name="Rectangle 52" width="386.366" height="0.603" transform="translate(0.302 274)" fill="#1d1d1b"/>
          <rect id="Rectangle_53" data-name="Rectangle 53" width="386.366" height="0.603" transform="translate(0.302 219.199)" fill="#1d1d1b"/>
          <rect id="Rectangle_54" data-name="Rectangle 54" width="386.366" height="0.603" transform="translate(0.302 164.398)" fill="#1d1d1b"/>
          <rect id="Rectangle_55" data-name="Rectangle 55" width="386.366" height="0.603" transform="translate(0.302 109.602)" fill="#1d1d1b"/>
          <rect id="Rectangle_56" data-name="Rectangle 56" width="386.366" height="0.603" transform="translate(0.302 54.801)" fill="#1d1d1b"/>
          <rect id="Rectangle_57" data-name="Rectangle 57" width="0.603" height="328.795" transform="translate(321.976 0.302)" fill="#1d1d1b"/>
          <rect id="Rectangle_58" data-name="Rectangle 58" width="0.603" height="328.795" transform="translate(257.579 0.302)" fill="#1d1d1b"/>
          <rect id="Rectangle_59" data-name="Rectangle 59" width="0.603" height="328.795" transform="translate(193.183 0.302)" fill="#1d1d1b"/>
          <rect id="Rectangle_60" data-name="Rectangle 60" width="0.603" height="328.795" transform="translate(128.793 0.302)" fill="#1d1d1b"/>
          <rect id="Rectangle_61" data-name="Rectangle 61" width="0.603" height="328.795" transform="translate(64.396 0.302)" fill="#1d1d1b"/>
        </g>
        <rect id="Rectangle_62" data-name="Rectangle 62" width="386.366" height="78.337" transform="translate(-26.963 148.08)" fill="#cfe0f4"/>
        <g id="Group_61" data-name="Group 61" transform="translate(152.642 90.919)">
          <path id="Path_860" data-name="Path 860" d="M330.739,187.05l.181.012a17.113,17.113,0,0,1-.38,2.07q.118-1.014.2-2.082Z" transform="translate(-283.711 -165.09)" fill="#cfe0f4"/>
          <path id="Path_861" data-name="Path 861" d="M299.769,174.7c-2.245,9.04-11.762,15.841-23.167,15.841a27.357,27.357,0,0,1-9.191-1.563c-.3-.29-.495-.465-.537-.5l-.205.223c-8.1-3.162-13.729-10.078-13.729-18.1,0-11.013,10.591-19.945,23.662-19.945s23.668,8.931,23.668,19.945a17.416,17.416,0,0,1-.121,2.028l-.181-.012q-.081,1.068-.2,2.082Z" transform="translate(-252.94 -150.66)" fill="#cfe0f4"/>
          <path id="Path_862" data-name="Path 862" d="M309.278,190.5c-2.565,22.757-16.4,26.492-22.365,27.023-4.623.416-7.827-.742-8.026-1.515-.06-.223.344-.428.519-.507a3.348,3.348,0,0,0,2.154-2.529c.447-2.933-3.223-6.813-4.641-8.2a27.356,27.356,0,0,0,9.191,1.563c11.406,0,20.922-6.8,23.167-15.841Z" transform="translate(-262.449 -166.458)" fill="#cfe0f4"/>
          <path id="Path_863" data-name="Path 863" d="M280.942,211.613a3.347,3.347,0,0,1-2.154,2.529c-.175.078-.579.284-.519.507.2.772,3.4,1.931,8.026,1.515,5.968-.531,19.8-4.267,22.365-27.023a17.108,17.108,0,0,0,.38-2.07l.422.036c-.791,10.078-3.8,17.814-8.925,22.992a22.924,22.924,0,0,1-14.188,6.668c-.682.06-1.352.091-1.985.091-3.7,0-6.4-.972-6.68-2.052-.072-.278-.054-.8.851-1.219a2.717,2.717,0,0,0,1.81-2.064c.495-3.229-4.93-8.111-4.985-8.159l.2-.223c.241.1.489.193.742.278,1.418,1.382,5.087,5.262,4.641,8.2Z" transform="translate(-261.83 -165.098)" fill="#cfe0f4"/>
          <path id="Path_864" data-name="Path 864" d="M275.9,213.33c.042.036.235.211.537.5-.253-.084-.5-.181-.742-.278Z" transform="translate(-261.961 -175.51)" fill="#cfe0f4"/>
        </g>
        <g id="Group_62" data-name="Group 62" transform="translate(208.716 82.706)">
          <path id="Path_865" data-name="Path 865" d="M423.659,173.44l.181.012a16.709,16.709,0,0,1-.38,2.058C423.538,174.834,423.6,174.146,423.659,173.44Z" transform="translate(-376.631 -151.48)" fill="#cfe0f4"/>
          <path id="Path_866" data-name="Path 866" d="M392.689,161.08c-2.239,9.052-11.762,15.847-23.161,15.847a27.314,27.314,0,0,1-9.209-1.569c-.29-.284-.483-.459-.525-.495l-.2.223c-8.111-3.156-13.735-10.072-13.735-18.1,0-11.013,10.6-19.939,23.668-19.939s23.662,8.925,23.662,19.939a17.433,17.433,0,0,1-.121,2.034l-.181-.012c-.054.706-.121,1.394-.2,2.07Z" transform="translate(-345.86 -137.05)" fill="#cfe0f4"/>
          <path id="Path_867" data-name="Path 867" d="M374.473,199.349c.453-2.939-3.241-6.837-4.653-8.2a27.314,27.314,0,0,0,9.209,1.569c11.4,0,20.922-6.8,23.161-15.847-2.553,22.769-16.4,26.5-22.359,27.035-4.629.41-7.827-.748-8.032-1.515-.054-.223.344-.434.519-.513A3.317,3.317,0,0,0,374.473,199.349Z" transform="translate(-355.361 -152.84)" fill="#cfe0f4"/>
          <path id="Path_868" data-name="Path 868" d="M371.189,201.039c.205.766,3.4,1.925,8.032,1.515,5.962-.537,19.806-4.267,22.359-27.036a16.706,16.706,0,0,0,.38-2.058l.422.03c-.791,10.084-3.8,17.82-8.925,23a22.944,22.944,0,0,1-14.182,6.662q-1.032.09-1.991.091c-3.7,0-6.4-.972-6.68-2.052-.072-.278-.054-.8.857-1.213a2.737,2.737,0,0,0,1.8-2.07c.495-3.223-4.93-8.1-4.985-8.153l.205-.229c.241.1.477.187.724.272,1.412,1.364,5.105,5.262,4.653,8.2a3.318,3.318,0,0,1-2.154,2.529C371.533,200.6,371.134,200.815,371.189,201.039Z" transform="translate(-354.75 -151.488)" fill="#cfe0f4"/>
          <path id="Path_869" data-name="Path 869" d="M368.819,199.71c.042.036.235.211.525.495-.247-.085-.483-.175-.724-.272l.2-.223Z" transform="translate(-354.885 -161.896)" fill="#cfe0f4"/>
        </g>
        <g id="Group_63" data-name="Group 63" transform="translate(-25.267 151.194)" opacity="0.45">
          <rect id="Rectangle_63" data-name="Rectangle 63" width="383.283" height="4.224" fill="#1d1d1b"/>
        </g>
        <g id="Group_64" data-name="Group 64" transform="translate(-25.304 184.403)" opacity="0.45">
          <rect id="Rectangle_64" data-name="Rectangle 64" width="383.283" height="4.224" fill="#1d1d1b"/>
        </g>
        <g id="Group_65" data-name="Group 65" transform="translate(-25.334 218.921)" opacity="0.45">
          <rect id="Rectangle_65" data-name="Rectangle 65" width="383.283" height="4.224" fill="#1d1d1b"/>
        </g>
        <path id="Path_870" data-name="Path 870" d="M15.184,339.063q2.544-17.824,5.534-35.581t6.439-35.43q3.449-17.67,7.344-35.255c2.311-10.434,4.508-21.423,10.826-30.294,5.087-7.151,13.065-12.606,22.129-11.973,8.171.567,15.841,5.745,19.987,12.721,4.5,7.574,4.3,16.945,1.056,24.947a34.216,34.216,0,0,1-18.756,18.533,45.456,45.456,0,0,1-28.3,1.762c-9.306-2.354-18.406-7.6-25.829-14.121q-2.752-2.426-5.286-5.087c-1.346-1.406-3.476.73-2.136,2.136A73.161,73.161,0,0,0,33.7,249.152a50.577,50.577,0,0,0,30.107,2.613,39.08,39.08,0,0,0,24.042-16c5.22-7.791,7.483-17.772,5.136-26.951a29.255,29.255,0,0,0-17.344-19.39,25.26,25.26,0,0,0-12.715-1.774,26.935,26.935,0,0,0-13.2,5.817c-8.455,6.68-12.745,16.958-15.449,27.1-1.521,5.7-2.716,11.49-3.971,17.247q-1.973,9.088-3.832,18.2-3.711,18.231-6.934,36.546t-5.968,36.721q-.67,4.49-1.31,8.98a1.565,1.565,0,0,0,1.056,1.859,1.526,1.526,0,0,0,1.859-1.056h0Z" transform="translate(-3.079 -74.332)" fill="#1d1d1b"/>
        <path id="Path_871" data-name="Path 871" d="M61.709,301.559A47.331,47.331,0,0,0,91.7,300.376a43.947,43.947,0,0,0,12.993-7.549c3.826-3.277,6.608-7.35,6.777-12.287.145-4.279-1.919-8.714-6.035-10.386-3.723-1.515-8.05-.308-11.056,2.173-7.5,6.2-3.192,17.766,4.387,21.725,5.3,2.77,11.689,2.692,17.314.972,6.035-1.841,11.333-5.4,16.5-8.9l-1.829-2.372c-4.6,3.651-9.462,7.58-11.864,13.107-1.931,4.442-2.094,10.187.778,14.284,3.1,4.417,8.581,5.564,13.548,3.953s9.179-5.419,12.226-9.831c3.567-5.16,6.276-11.285,11.363-15.2a1.56,1.56,0,0,0,.543-2.064,1.523,1.523,0,0,0-2.064-.543,16.634,16.634,0,0,0-5.648,18.907c2.643,7.145,10.126,10.657,17.44,9.541A15.175,15.175,0,0,0,176.4,310.8c2.866-3.422,4.176-7.694,6.2-11.6,1.666-3.223,4.568-7.024,8.527-7.248,3.168-.175,5.5,2.209,6.469,5.045,3.108,9.13-6.2,15.25-12.848,19.3a1.51,1.51,0,0,0,1.521,2.607c5.25-2.522,8.455-7.634,11.062-12.619,2.547-4.87,4.918-10.512,9.565-13.783a9.89,9.89,0,0,1,6.548-1.991,9.2,9.2,0,0,1,5.7,2.438c3.12,3.066,1.056,7-1.34,9.752-2.583,2.969-6.149,5.642-7.453,9.493a6.976,6.976,0,0,0,.585,5.715,7.926,7.926,0,0,0,6.107,3.627c6.1.688,10.283-4.26,13.536-8.69q6.653-9.061,13.276-18.14l26.535-36.257,3.367-4.6-2.607-1.521c-6.536,14.507-13.119,28.985-19.607,43.516-2.607,5.836-5.383,13.2-1.653,19.2,2.921,4.707,8.9,6.59,14.194,5.986,7.507-.857,13.379-6.131,18.714-11.037,1.43-1.316-.706-3.446-2.136-2.136-4.417,4.061-9.2,8.539-15.232,9.909-4.369.99-9.993.024-12.7-3.886-3.609-5.226-.549-12.148,1.75-17.247q4.5-9.993,9-19.993l10.265-22.787a1.51,1.51,0,0,0-2.607-1.521l-26.4,36.082-13.2,18.038c-1.967,2.685-3.826,5.516-6.041,8-1.732,1.949-3.929,3.856-6.632,4.11-2.082.2-4.592-.465-5.522-2.535a4.36,4.36,0,0,1,.434-4.122c2.01-3.476,5.5-5.89,7.815-9.161,2.547-3.6,3.126-8.237-.06-11.665a12.224,12.224,0,0,0-12.769-2.963c-11.394,4.188-12.3,18.521-20.56,25.913a14.681,14.681,0,0,1-3.458,2.281l1.521,2.607c6.487-3.953,14.465-9.131,14.936-17.543a13.293,13.293,0,0,0-3.108-9.4,8.89,8.89,0,0,0-9.5-2.559c-3.9,1.31-6.771,4.725-8.606,8.274-1.979,3.838-3.2,8.292-6.192,11.532-4.635,5.027-13.518,5.256-18.472.555-5.473-5.2-4.623-15.322,1.479-19.7l-1.521-2.607c-4.194,3.229-6.976,7.634-9.728,12.069s-5.359,8.479-9.782,11.1c-3.639,2.154-8.624,3.367-12.184.38s-3.663-7.942-2.354-11.882c1.889-5.685,7.157-9.68,11.665-13.252,1.334-1.056-.416-3.331-1.829-2.372-7.634,5.178-16.565,11.237-26.311,9.414a13.843,13.843,0,0,1-9.728-6.554c-1.768-3.072-2.287-7.133-.169-10.174a8.765,8.765,0,0,1,8.062-3.645c3.579.531,5.486,3.995,5.54,7.368.066,4.206-2.486,7.737-5.5,10.422a38.867,38.867,0,0,1-11.225,6.8,44.662,44.662,0,0,1-29.214,1.509c-1.865-.549-2.661,2.36-.8,2.909h0Z" transform="translate(-24.052 -99.776)" fill="#1d1d1b"/>
        <path id="Path_872" data-name="Path 872" d="M352.186,296.218l29.86,7.042,8.491,2a1.516,1.516,0,0,0,1.165-2.758l-1.913-1.122a1.51,1.51,0,0,0-1.521,2.607l1.913,1.122,1.165-2.758-29.86-7.043-8.491-2c-1.889-.447-2.691,2.462-.8,2.909h0Z" transform="translate(-139.227 -116.287)" fill="#1d1d1b"/>
        <path id="Path_873" data-name="Path 873" d="M221.115,268.575v3.548a1.687,1.687,0,0,0,.32,1.092,2.245,2.245,0,0,0,.247.29,2.67,2.67,0,0,0,1,.579,3,3,0,0,0,1.6.03,3.177,3.177,0,0,0,1.406-.779,2.709,2.709,0,0,0,.809-1.732,2.646,2.646,0,0,0-1.545-2.553,3.336,3.336,0,0,0-2.022-.272,2.647,2.647,0,0,0-1.66,1.141,1.486,1.486,0,0,0-.151,1.165,1.47,1.47,0,0,0,.694.9,3.094,3.094,0,0,0,2.2.217,3.206,3.206,0,0,0,1.768-1.291,3,3,0,0,0-.628-3.874,3.167,3.167,0,0,0-1.141-.634,2.572,2.572,0,0,0-.634-.1,1.744,1.744,0,0,0-1.207.495,2.957,2.957,0,0,0-.839,1.1,4.244,4.244,0,0,0-.2,3.114,3.857,3.857,0,0,0,2.541,2.571,1.528,1.528,0,0,0,1.859-1.056,1.55,1.55,0,0,0-1.056-1.859c-.078-.024-.157-.048-.229-.078l.362.151a2.12,2.12,0,0,1-.453-.266l.308.235a2.3,2.3,0,0,1-.4-.4l.235.308a2.687,2.687,0,0,1-.338-.585l.151.362a3.228,3.228,0,0,1-.193-.706l.054.4a2.8,2.8,0,0,1,0-.778l-.054.4a2.7,2.7,0,0,1,.175-.646l-.151.362a2.079,2.079,0,0,1,.266-.447l-.235.308a2.276,2.276,0,0,1,.338-.344l-.308.235.078-.06-.76.205a.821.821,0,0,1,.121.012l-.4-.054a1.4,1.4,0,0,1,.344.1l-.362-.151a1.585,1.585,0,0,1,.308.181l-.308-.235a2,2,0,0,1,.3.3l-.235-.308a1.987,1.987,0,0,1,.217.362l-.151-.362a1.578,1.578,0,0,1,.115.4l-.054-.4a1.407,1.407,0,0,1,.006.356l.054-.4a1.631,1.631,0,0,1-.084.338l.151-.362a1.877,1.877,0,0,1-.193.338l.235-.308a1.684,1.684,0,0,1-.278.272l.308-.235a1.936,1.936,0,0,1-.392.223l.362-.151a1.688,1.688,0,0,1-.38.1l.4-.054a1.84,1.84,0,0,1-.447,0l.4.054a1.393,1.393,0,0,1-.32-.09l.362.151-.054-.024.543,2.064.03-.036-.235.308a1.463,1.463,0,0,1,.193-.193l-.308.235a1.257,1.257,0,0,1,.229-.133l-.362.151a1.724,1.724,0,0,1,.3-.085l-.4.054a1.558,1.558,0,0,1,.41,0l-.4-.054a1.88,1.88,0,0,1,.447.121l-.362-.151a1.628,1.628,0,0,1,.356.211l-.308-.235a1.3,1.3,0,0,1,.223.223l-.235-.308a1.329,1.329,0,0,1,.157.272l-.151-.362a1.315,1.315,0,0,1,.066.266l-.054-.4a1.488,1.488,0,0,1,0,.284l.054-.4a1.288,1.288,0,0,1-.078.259l.151-.362a1.34,1.34,0,0,1-.139.235l.235-.308a1.759,1.759,0,0,1-.26.26l.308-.235a1.712,1.712,0,0,1-.368.211l.362-.151a1.879,1.879,0,0,1-.41.115l.4-.054a1.6,1.6,0,0,1-.416,0l.4.054a1.369,1.369,0,0,1-.308-.085l.362.151a1.152,1.152,0,0,1-.235-.139l.308.235a1.427,1.427,0,0,1-.169-.163l.441,1.068v-3.723a1.509,1.509,0,0,0-3.017,0h0Z" transform="translate(-87.603 -105.596)" fill="#1d1d1b"/>
        <path id="Path_874" data-name="Path 874" d="M278.054,171.255c-5.5-2.571-12.311-2.818-17.549.567-4.665,3.011-7.712,8.515-6.91,14.121.736,5.16,4.8,9.861,10.048,10.712,2.577.416,5.178.175,7.767.434,1.943.193,4.031,1,4.617,3.048.676,2.378-.688,5.069-2.607,6.53-2.535,1.931-5.842,2.541-8.889,3.156a1.52,1.52,0,0,0,0,2.909c10.693,2.764,22.5-3.144,26.426-13.506a23.047,23.047,0,0,0-.072-16.119,21.438,21.438,0,0,0-10.826-11.738,22.791,22.791,0,0,0-17.561-1.008,1.555,1.555,0,0,0-1.056,1.859,1.521,1.521,0,0,0,1.859,1.056c8.937-3.319,19.7.555,24.018,9.167a20.166,20.166,0,0,1,1.382,13.976,18.464,18.464,0,0,1-8.3,11.031,19.742,19.742,0,0,1-15.063,2.39v2.909c5.413-1.086,11.538-2.812,13.445-8.672a7.6,7.6,0,0,0-1.171-7.217c-1.666-2.022-4.23-2.643-6.711-2.818s-4.828.115-7.163-.416a8.988,8.988,0,0,1-5.492-3.874,10.627,10.627,0,0,1,1.291-13.156c4.3-4.725,11.388-5.335,17.006-2.71a1.552,1.552,0,0,0,2.064-.543,1.523,1.523,0,0,0-.543-2.064h0Z" transform="translate(-100.507 -67.035)" fill="#1d1d1b"/>
        <path id="Path_875" data-name="Path 875" d="M266.279,202.442a30.342,30.342,0,0,0,26.263-5.087,27.394,27.394,0,0,0,8.69-10.724,28.079,28.079,0,0,0,2.257-13.319c-.67-9.046-5.413-17.911-13.415-22.491-7.942-4.544-18.056-4.49-26.2-.507-8.714,4.261-15.214,14.151-13.023,24.054a16.2,16.2,0,0,0,1.291,3.6,1.475,1.475,0,0,0,1.3.748,2.47,2.47,0,0,0,2.281-1.738,2.419,2.419,0,0,0-.652-2.6,1.56,1.56,0,0,0-2.136,0,1.525,1.525,0,0,0,0,2.136c.326.266-.115-.169-.1-.35a.586.586,0,0,1,.6-.459l1.3.748c-1.973-4.055-1.545-8.949.253-12.993a20.744,20.744,0,0,1,8.274-9.366,25.594,25.594,0,0,1,23.016-1.792c7.616,3.265,12.522,10.663,13.9,18.683a25.843,25.843,0,0,1-.754,11.913,23.661,23.661,0,0,1-6.493,10.217,27.637,27.637,0,0,1-22.805,7.121,26.307,26.307,0,0,1-3.054-.694,1.51,1.51,0,0,0-.8,2.909h0Z" transform="translate(-99.299 -58.435)" fill="#1d1d1b"/>
        <path id="Path_876" data-name="Path 876" d="M281.273,162.6l5.142-12.528a1.525,1.525,0,0,0-1.056-1.859,1.553,1.553,0,0,0-1.859,1.056L278.358,161.8a1.525,1.525,0,0,0,1.056,1.859,1.553,1.553,0,0,0,1.859-1.056Z" transform="translate(-110.346 -58.748)" fill="#1d1d1b"/>
        <path id="Path_877" data-name="Path 877" d="M300,166.759l8.835-12.25a1.518,1.518,0,0,0-.543-2.064,1.54,1.54,0,0,0-2.064.543l-8.835,12.25a1.518,1.518,0,0,0,.543,2.064,1.54,1.54,0,0,0,2.064-.543Z" transform="translate(-117.84 -60.367)" fill="#1d1d1b"/>
        <path id="Path_878" data-name="Path 878" d="M310.136,187.209l14.206-3.554c1.883-.471,1.086-3.379-.8-2.909L309.334,184.3c-1.883.471-1.086,3.379.8,2.909Z" transform="translate(-122.234 -71.651)" fill="#1d1d1b"/>
        <path id="Path_879" data-name="Path 879" d="M314.879,203.563a7.685,7.685,0,0,0,4.315,3.2,7.787,7.787,0,0,0,5.4-.392,1.517,1.517,0,0,0,.543-2.064,1.555,1.555,0,0,0-2.064-.543c-.314.139.217-.072.024-.012-.085.024-.163.06-.241.084-.163.054-.326.1-.495.139-.066.018-.133.03-.2.042-.03,0-.35.084-.1.024s-.042,0-.109.006l-.259.018c-.326.012-.658-.06-.978-.036.332-.024.175.024.042,0-.084-.012-.169-.03-.253-.048-.169-.036-.338-.078-.5-.127s-.3-.1-.441-.151c-.229-.084-.1.018.024.018a.753.753,0,0,1-.235-.109,6.572,6.572,0,0,1-.845-.495c-.024-.018-.272-.223-.1-.066s-.048-.042-.085-.078c-.127-.115-.253-.229-.374-.356-.109-.109-.205-.229-.308-.344-.121-.139.169.253.018.018-.054-.084-.115-.169-.175-.259a1.509,1.509,0,0,0-2.607,1.521h0Z" transform="translate(-124.774 -79.815)" fill="#1d1d1b"/>
        <path id="Path_880" data-name="Path 880" d="M365.091,160.665c-2.148,2.444-5.57,2.824-8.545,1.762a8.127,8.127,0,0,1-5.22-7.688,11.093,11.093,0,0,1,4.725-9.342,14.906,14.906,0,0,1,11.381-2.064c7.682,1.635,13.252,8.551,14.688,16.058,1.545,8.08-2.16,16.426-7.948,21.978-6.5,6.228-15.7,8.865-24.549,8.7-1.135-.018-2.263-.09-3.391-.193l.76,2.812a48.845,48.845,0,0,0,17.947-21.93,46.31,46.31,0,0,0,2.4-7.568,1.521,1.521,0,0,0-1.454-1.907l-3.229.084c-1.937.048-1.943,3.072,0,3.017l3.229-.084-1.454-1.907a45.672,45.672,0,0,1-13.059,22.98,43.471,43.471,0,0,1-5.9,4.713,1.523,1.523,0,0,0,.76,2.812c10.048.935,20.651-1.466,28.514-8,7.211-5.992,11.786-15.57,10.488-25.02-1.195-8.708-7.453-16.915-16.113-19.239a18.317,18.317,0,0,0-13.741,1.617,14.213,14.213,0,0,0-7.018,11.025,11.275,11.275,0,0,0,16.565,11.394,9.013,9.013,0,0,0,2.293-1.871,1.548,1.548,0,0,0,0-2.136,1.524,1.524,0,0,0-2.136,0h0Z" transform="translate(-136.701 -55.51)" fill="#1d1d1b"/>
        <path id="Path_881" data-name="Path 881" d="M363.342,190.066c16.251,1.406,32.557-8.485,38.037-23.982a28.393,28.393,0,0,0-1.472-23c-3.476-6.427-9.746-11.5-17.1-12.51-7.972-1.1-16.529,2.263-20.844,9.221-1.026,1.654,1.581,3.174,2.607,1.521,3.3-5.317,9.625-8.1,15.769-7.942,6.578.175,12.431,4.092,15.95,9.529a24.877,24.877,0,0,1,2.848,20.259,32.707,32.707,0,0,1-12.679,17.658,35.374,35.374,0,0,1-23.119,6.222,1.517,1.517,0,0,0-1.509,1.509,1.541,1.541,0,0,0,1.509,1.509h0Z" transform="translate(-143.437 -51.696)" fill="#1d1d1b"/>
        <path id="Path_882" data-name="Path 882" d="M397.859,149.879l7.549-4.188a1.526,1.526,0,0,0,.543-2.064,1.558,1.558,0,0,0-2.064-.543l-7.549,4.188a1.526,1.526,0,0,0-.543,2.064,1.558,1.558,0,0,0,2.064.543Z" transform="translate(-156.863 -56.661)" fill="#1d1d1b"/>
        <path id="Path_883" data-name="Path 883" d="M412.406,163.194c.066-.1.133-.187.2-.284.139-.193-.133.163.018-.024.133-.157.266-.32.4-.471a9.987,9.987,0,0,1,.893-.857c-.006.006.3-.247.169-.139s.1-.072.121-.091c.169-.121.338-.235.513-.35a10.075,10.075,0,0,1,1.147-.634c.084-.042.169-.078.253-.115.229-.1-.32.121.085-.03.193-.072.386-.145.585-.205a10.3,10.3,0,0,1,1.2-.308c.1-.018.652-.091.35-.06.205-.018.41-.042.616-.048a9.508,9.508,0,0,1,1.31.024,1.513,1.513,0,0,0,1.509-1.509,1.541,1.541,0,0,0-1.509-1.509,11.754,11.754,0,0,0-10.458,5.081,1.516,1.516,0,0,0,.543,2.064,1.551,1.551,0,0,0,2.064-.543h0Z" transform="translate(-162.418 -62.077)" fill="#1d1d1b"/>
        <path id="Path_884" data-name="Path 884" d="M410.565,184.742l8.5,1.7a1.566,1.566,0,0,0,1.859-1.056,2.085,2.085,0,0,0-.622-2.239,2.172,2.172,0,0,0-2.553-.32,1.526,1.526,0,0,0-.543,2.064,1.544,1.544,0,0,0,2.064.543,1.07,1.07,0,0,1-.724.085l-.187-.085c-.163-.139-.2-.175-.121-.091s-.115-.163-.139-.217a.443.443,0,0,1-.048-.362c.03-.3.018-.35-.036-.181l1.859-1.056-8.5-1.7a1.512,1.512,0,1,0-.8,2.915h0Z" transform="translate(-162.369 -72.086)" fill="#1d1d1b"/>
      </g>
    </g>
  </g>
</svg>
