<svg xmlns="http://www.w3.org/2000/svg" xmlns:xlink="http://www.w3.org/1999/xlink" width="324" height="322.326" viewBox="0 0 324 322.326">
  <defs>
    <clipPath id="clip-path">
      <circle id="Ellipse_24" data-name="Ellipse 24" cx="161.163" cy="161.163" r="161.163" transform="translate(0 0)" fill="none"/>
    </clipPath>
  </defs>
  <g id="UX_UI_design_icon" data-name="UX &amp; UI design icon" transform="translate(-368 -6996.837)">
    <circle id="Ellipse_25" data-name="Ellipse 25" cx="161" cy="161" r="161" transform="translate(368 6997)" fill="#cee1ff"/>
    <g id="UX_Design_icon" data-name="UX Design icon" transform="translate(369.674 6996.837)" clip-path="url(#clip-path)">
      <rect id="Rectangle_39" data-name="Rectangle 39" width="100.676" height="182.387" transform="translate(48.099 134.273) rotate(5.97)" fill="#fbf4b3"/>
      <rect id="Rectangle_40" data-name="Rectangle 40" width="112.908" height="197.108" transform="translate(184.52 100.401) rotate(5.97)" fill="#fbf4b3"/>
      <circle id="Ellipse_15" data-name="Ellipse 15" cx="21.11" cy="21.11" r="21.11" transform="translate(50.341 17.119)" fill="#fbf4b3"/>
      <circle id="Ellipse_16" data-name="Ellipse 16" cx="21.11" cy="21.11" r="21.11" transform="translate(34.388 42.497)" fill="#fbf4b3"/>
      <circle id="Ellipse_17" data-name="Ellipse 17" cx="21.11" cy="21.11" r="21.11" transform="translate(82.848 10.735)" fill="#fbf4b3"/>
      <circle id="Ellipse_18" data-name="Ellipse 18" cx="21.11" cy="21.11" r="21.11" transform="translate(111.363 11.739)" fill="#fbf4b3"/>
      <circle id="Ellipse_19" data-name="Ellipse 19" cx="21.11" cy="21.11" r="21.11" transform="translate(142.662 28.816)" fill="#fbf4b3"/>
      <circle id="Ellipse_20" data-name="Ellipse 20" cx="21.11" cy="21.11" r="21.11" transform="translate(119.303 49.193)" fill="#fbf4b3"/>
      <circle id="Ellipse_21" data-name="Ellipse 21" cx="21.11" cy="21.11" r="21.11" transform="translate(94.713 46.62)" fill="#fbf4b3"/>
      <circle id="Ellipse_22" data-name="Ellipse 22" cx="21.11" cy="21.11" r="21.11" transform="translate(65.47 46.055)" fill="#fbf4b3"/>
      <circle id="Ellipse_23" data-name="Ellipse 23" cx="27.145" cy="27.145" r="27.145" transform="translate(194.62 4.081)" fill="#fbf4b3"/>
      <rect id="Rectangle_41" data-name="Rectangle 41" width="77.847" height="19.956" transform="translate(215.874 76.61) rotate(5.97)" fill="#fbf4b3"/>
      <path id="Path_799" data-name="Path 799" d="M78.145,381.653l3.919-56.881,3.919-56.881,2.206-32.032c.132-1.923-2.855-2.248-2.987-.313l-3.919,56.881-3.919,56.881L75.157,381.34c-.132,1.923,2.855,2.248,2.987.313Z" transform="translate(-29.98 -93.444)" fill="#1d1d1b"/>
      <path id="Path_800" data-name="Path 800" d="M97.976,231.361q15.337-.307,30.673.475c10.218.523,20.509,1.425,30.709,2.693q8.6,1.064,17.161,2.482c1.911.313,2.218-2.675.313-2.987q-15.138-2.5-30.427-3.919-15.346-1.425-30.776-1.731-8.674-.171-17.341,0a1.555,1.555,0,0,0-1.653,1.34,1.518,1.518,0,0,0,1.34,1.653h0Z" transform="translate(-38.547 -91.067)" fill="#1d1d1b"/>
      <path id="Path_801" data-name="Path 801" d="M232.329,250.927l-3.655,60.133-3.637,59.826-2.05,33.751c-.114,1.923,2.873,2.248,2.987.313l3.655-60.133,3.637-59.826,2.05-33.751c.114-1.923-2.873-2.248-2.987-.313Z" transform="translate(-88.952 -99.579)" fill="#1d1d1b"/>
      <path id="Path_802" data-name="Path 802" d="M81.937,529.285l32.3,1.887,32.3,1.887,18.243,1.064c1.923.114,2.248-2.873.313-2.987l-32.3-1.887-32.3-1.887L82.249,526.3c-1.923-.114-2.248,2.873-.313,2.987h0Z" transform="translate(-32.167 -209.947)" fill="#1d1d1b"/>
      <path id="Path_803" data-name="Path 803" d="M107.428,244.276l-.5,19.313a1.542,1.542,0,0,0,1.34,1.653,1.521,1.521,0,0,0,1.653-1.34l.5-19.313a1.542,1.542,0,0,0-1.34-1.653,1.521,1.521,0,0,0-1.653,1.34h0Z" transform="translate(-42.655 -96.908)" fill="#1d1d1b"/>
      <path id="Path_804" data-name="Path 804" d="M112.555,283.69l52.367,7.405,14.877,2.1-.463-2.861-2.867,1.094c-1.809.685-.565,3.426,1.238,2.741l2.867-1.094c1.461-.559.926-2.669-.463-2.861l-52.367-7.405-14.877-2.1c-1.917-.271-2.224,2.717-.313,2.987h0Z" transform="translate(-44.385 -111.972)" fill="#1d1d1b"/>
      <path id="Path_805" data-name="Path 805" d="M111.426,246.92a301.746,301.746,0,0,1,49.1,3.619q6.9,1.082,13.729,2.482a1.519,1.519,0,0,0,1.653-1.34,1.544,1.544,0,0,0-1.34-1.653,301.719,301.719,0,0,0-48.874-5.891q-6.97-.261-13.951-.2a1.555,1.555,0,0,0-1.653,1.34,1.514,1.514,0,0,0,1.34,1.653h0Z" transform="translate(-43.912 -97.303)" fill="#1d1d1b"/>
      <path id="Path_806" data-name="Path 806" d="M223.414,260.889l2.236,21.928a1.5,1.5,0,1,0,2.969-.493L226.384,260.4a1.5,1.5,0,1,0-2.969.493Z" transform="translate(-89.12 -103.375)" fill="#1d1d1b"/>
      <path id="Path_807" data-name="Path 807" d="M144.8,249.719l1.929,20.659a1.523,1.523,0,0,0,1.731,1.238,1.539,1.539,0,0,0,1.238-1.731l-1.929-20.659a1.523,1.523,0,0,0-1.731-1.238,1.539,1.539,0,0,0-1.238,1.731Z" transform="translate(-57.758 -98.919)" fill="#1d1d1b"/>
      <path id="Path_808" data-name="Path 808" d="M112.13,306.337l-1.509,36.594-1.509,36.594-.854,20.7c-.078,1.923,2.909,2.248,2.987.313l1.509-36.594,1.509-36.594.854-20.7c.078-1.923-2.909-2.248-2.987-.313Z" transform="translate(-43.185 -121.683)" fill="#1d1d1b"/>
      <path id="Path_809" data-name="Path 809" d="M110.557,466.586,132.2,467.77c1.923.108,2.248-2.885.313-2.987L110.869,463.6c-1.923-.108-2.248,2.885-.313,2.987h0Z" transform="translate(-43.584 -184.935)" fill="#1d1d1b"/>
      <path id="Path_810" data-name="Path 810" d="M136.185,404.138l1.659-36.444,1.647-36.294.932-20.545a1.545,1.545,0,0,0-1.34-1.653q-11.352-1.911-22.709-3.829c-1.905-.325-2.212,2.669-.313,2.987q11.351,1.911,22.709,3.829l-1.34-1.653-1.659,36.444-1.647,36.294-.932,20.545c-.09,1.923,2.9,2.248,2.987.313h0Z" transform="translate(-45.788 -121.808)" fill="#1d1d1b"/>
      <path id="Path_811" data-name="Path 811" d="M161.929,315.667l-2.344,37.706-2.344,37.706-1.322,21.248c-.12,1.924,2.867,2.248,2.987.313l2.344-37.706,2.344-37.706,1.322-21.248c.12-1.923-2.867-2.248-2.987-.313Z" transform="translate(-62.196 -125.405)" fill="#1d1d1b"/>
      <path id="Path_812" data-name="Path 812" d="M157.2,479.189a67.841,67.841,0,0,1,29.189-2.825,65.952,65.952,0,0,1,8.223,1.515,1.509,1.509,0,0,0,1.437-2.609l-2.122-1.8a1.505,1.505,0,0,0-1.779,2.428l2.122,1.8,1.437-2.609a71.382,71.382,0,0,0-31.022-.92,72.984,72.984,0,0,0-8.722,2.29,1.518,1.518,0,0,0-.751,1.99,1.542,1.542,0,0,0,1.99.751h0Z" transform="translate(-61.867 -188.643)" fill="#1d1d1b"/>
      <path id="Path_813" data-name="Path 813" d="M170.293,318.088l30.433,3.847c1.917.24,2.23-2.747.313-2.987L170.606,315.1c-1.917-.24-2.23,2.747-.313,2.987Z" transform="translate(-67.417 -125.693)" fill="#1d1d1b"/>
      <path id="Path_814" data-name="Path 814" d="M219.956,326.707l-2.2,35.158-2.2,35.157-1.238,19.746c-.12,1.924,2.867,2.248,2.987.313l2.2-35.157,2.2-35.158,1.238-19.746c.12-1.923-2.867-2.248-2.987-.313Z" transform="translate(-85.493 -129.809)" fill="#1d1d1b"/>
      <path id="Path_815" data-name="Path 815" d="M162.6,214.3l.9-14.408c.12-1.923-2.867-2.248-2.987-.313l-.9,14.408c-.12,1.923,2.867,2.248,2.987.313Z" transform="translate(-63.668 -79.095)" fill="#1d1d1b"/>
      <path id="Path_816" data-name="Path 816" d="M162.06,204.521a361.371,361.371,0,0,1,56.965,3.955q8.052,1.208,16.049,2.771a1.519,1.519,0,0,0,1.653-1.34,1.54,1.54,0,0,0-1.34-1.653,361.969,361.969,0,0,0-56.724-6.522q-8.142-.289-16.283-.2a1.55,1.55,0,0,0-1.653,1.34,1.514,1.514,0,0,0,1.34,1.653h0Z" transform="translate(-64.113 -80.385)" fill="#1d1d1b"/>
      <path id="Path_817" data-name="Path 817" d="M272.184,201.5a21.516,21.516,0,0,1,6.576,3.474c1.527,1.34,2.759,3.552,2.3,5.638-.823,3.709-5.843,4.688-9.052,5.235l1.743,1.641v-.92a1.542,1.542,0,0,0-1.334-1.653,1.518,1.518,0,0,0-1.653,1.34v.92a1.522,1.522,0,0,0,1.737,1.641c3.625-.619,7.82-1.635,10.164-4.719,2.921-3.835,1.07-8.884-2.32-11.7a24.975,24.975,0,0,0-7.063-3.685,1.5,1.5,0,0,0-1.094,2.8h0Z" transform="translate(-108.01 -79.226)" fill="#1d1d1b"/>
      <path id="Path_818" data-name="Path 818" d="M299.615,175.367l-2.3,64.232-2.3,64.232-1.286,36.047a1.5,1.5,0,0,0,2.987.313l1.6-9.112a1.5,1.5,0,1,0-2.993-.313l-1.6,9.112,2.987.313,2.3-64.232,2.3-64.232,1.286-36.047c.066-1.923-2.921-2.248-2.987-.313h0Z" transform="translate(-117.173 -69.437)" fill="#1d1d1b"/>
      <path id="Path_819" data-name="Path 819" d="M306.69,177.069l40.165,4.911,39.87,4.875,22.613,2.765c1.923.234,2.236-2.753.313-2.987l-40.165-4.911-39.87-4.875L307,174.081c-1.923-.234-2.236,2.753-.313,2.987Z" transform="translate(-121.826 -69.438)" fill="#1d1d1b"/>
      <path id="Path_820" data-name="Path 820" d="M468.111,199.588l-5.638,68.969-5.614,68.614-3.168,38.7,2.861-.463-2.35-6.967a1.52,1.52,0,0,0-1.99-.751,1.54,1.54,0,0,0-.751,1.99l2.35,6.967c.487,1.443,2.747.95,2.861-.463l5.638-68.969,5.614-68.614,3.168-38.7c.156-1.923-2.831-2.242-2.987-.313h0Z" transform="translate(-180.052 -79.101)" fill="#1d1d1b"/>
      <path id="Path_821" data-name="Path 821" d="M304.125,490.1a352.337,352.337,0,0,0,36.786,3.2,358.58,358.58,0,0,0,37.183-.655q10.378-.721,20.7-2.062c1.917-.246,1.425-3.216-.493-2.963a349.385,349.385,0,0,1-36.564,2.807,352.358,352.358,0,0,1-36.768-1.052q-10.3-.83-20.527-2.266c-1.917-.271-2.224,2.723-.313,2.987h0Z" transform="translate(-120.806 -194.308)" fill="#1d1d1b"/>
      <path id="Path_822" data-name="Path 822" d="M321.581,190.363l-2.482,17.87c-.264,1.917,2.723,2.23,2.987.313l2.482-17.87c.264-1.917-2.723-2.23-2.987-.313Z" transform="translate(-127.287 -75.423)" fill="#1d1d1b"/>
      <path id="Path_823" data-name="Path 823" d="M324.817,225.235l33.775,2.3,33.631,2.29,18.982,1.292c1.923.132,2.248-2.855.313-2.987l-33.775-2.3-33.631-2.29-18.982-1.292c-1.923-.132-2.248,2.855-.313,2.987Z" transform="translate(-129.055 -88.656)" fill="#1d1d1b"/>
      <path id="Path_824" data-name="Path 824" d="M471.033,223.469l.276-15.67a1.547,1.547,0,0,0-1.34-1.653,1.518,1.518,0,0,0-1.653,1.34l-.276,15.67a1.547,1.547,0,0,0,1.34,1.653,1.518,1.518,0,0,0,1.653-1.34Z" transform="translate(-186.708 -82.232)" fill="#1d1d1b"/>
      <path id="Path_825" data-name="Path 825" d="M409.5,204.969l-34.033-1.334L341.431,202.3l-19.193-.751a1.542,1.542,0,0,0-1.653,1.34,1.521,1.521,0,0,0,1.34,1.653l34.033,1.334,34.033,1.334,19.193.751a1.542,1.542,0,0,0,1.653-1.34,1.521,1.521,0,0,0-1.34-1.653Z" transform="translate(-127.883 -80.4)" fill="#1d1d1b"/>
      <path id="Path_826" data-name="Path 826" d="M324.68,248.826l.589,48.6.589,48.6.331,27.3a1.555,1.555,0,0,0,1.34,1.653,1.518,1.518,0,0,0,1.653-1.34l-.589-48.6L328,276.44l-.331-27.3a1.555,1.555,0,0,0-1.34-1.653,1.518,1.518,0,0,0-1.653,1.34h0Z" transform="translate(-129.52 -98.723)" fill="#1d1d1b"/>
      <path id="Path_827" data-name="Path 827" d="M325.868,253.432l30.848,2.981,30.7,2.963,17.438,1.683a1.5,1.5,0,0,0,.313-2.987l-30.848-2.981-30.7-2.963-17.437-1.683a1.5,1.5,0,0,0-.313,2.987Z" transform="translate(-129.476 -99.903)" fill="#1d1d1b"/>
      <path id="Path_828" data-name="Path 828" d="M455.363,265.142q-.37,24.335-1.743,48.646-1.37,24.227-3.733,48.387-1.334,13.6-2.975,27.163c-.234,1.923,2.759,2.236,2.987.313q2.93-24.164,4.863-48.435,1.929-24.191,2.861-48.448.523-13.651.733-27.319a1.547,1.547,0,0,0-1.34-1.653,1.518,1.518,0,0,0-1.653,1.34h0Z" transform="translate(-178.274 -105.229)" fill="#1d1d1b"/>
      <path id="Path_829" data-name="Path 829" d="M330.436,470.014l53.575-.138,15.262-.042a1.547,1.547,0,0,0,1.653-1.34,1.518,1.518,0,0,0-1.34-1.653l-53.575.138-15.262.042a1.547,1.547,0,0,0-1.653,1.34,1.518,1.518,0,0,0,1.34,1.653Z" transform="translate(-131.278 -186.229)" fill="#1d1d1b"/>
      <path id="Path_830" data-name="Path 830" d="M117.038,33.31a23.327,23.327,0,0,0-19.145-2.8A22.609,22.609,0,0,0,83.726,43.072,22.872,22.872,0,0,0,81.76,53.615l2.032-1.647a15,15,0,0,0-16.271,6.618,13.061,13.061,0,0,0-1.845,9.149,14.9,14.9,0,0,0,4.448,8.175,14.082,14.082,0,0,0,9.671,4.129l-1.058-2.386A18.806,18.806,0,0,0,76.994,96.7a18.362,18.362,0,0,0,27.247,6.227l-2.116-.222a18.99,18.99,0,0,0,12.358,6.991,18.628,18.628,0,0,0,18.375-9.335l-2.579-.27a19.124,19.124,0,0,0,12.653,9.179,18.1,18.1,0,0,0,14.8-3.546,18.711,18.711,0,0,0,5.506-6.84l-2.771.072a17.033,17.033,0,0,0,14.156,8.457,16.3,16.3,0,0,0,14.3-8.061,16.757,16.757,0,0,0,2.368-9.5l-2.651,1.19c6.083,7.189,17.858,7.82,24.374.9a17.183,17.183,0,0,0,4.58-11.992,15.713,15.713,0,0,0-5.764-11.823,16.847,16.847,0,0,0-14.144-3.6l1.647,2.032a22.9,22.9,0,0,0-.7-21.441,21.913,21.913,0,0,0-19.03-10.826,22.587,22.587,0,0,0-12.575,3.691l2.44,1.322a15.4,15.4,0,0,0-4.893-14.636,15.1,15.1,0,0,0-21.837,2.819l2.693.643a14.852,14.852,0,0,0-11.523-10.513,13.955,13.955,0,0,0-14.077,6.3,14.353,14.353,0,0,0-2.362,8.962,1.519,1.519,0,0,0,1.731,1.238,1.547,1.547,0,0,0,1.238-1.731A11.729,11.729,0,0,1,126.457,21.7a11.452,11.452,0,0,1,16.025,6.918,1.523,1.523,0,0,0,2.693.643,12.372,12.372,0,0,1,11.072-5.049,11.656,11.656,0,0,1,9.708,7.514,12.014,12.014,0,0,1,.535,7.261,1.482,1.482,0,0,0,.775,1.461,1.551,1.551,0,0,0,1.665-.138,20.023,20.023,0,0,1,19.4-1c6,2.891,9.653,9.01,10.267,15.532a19.262,19.262,0,0,1-2.05,10.615,1.512,1.512,0,0,0,1.647,2.032c7.315-1.623,15.3,3.462,16.319,11.012a14.267,14.267,0,0,1-2.771,10.321,12.926,12.926,0,0,1-9.509,4.989A13.833,13.833,0,0,1,191,89.133a1.516,1.516,0,0,0-2.651,1.19,14.021,14.021,0,0,1-6.191,11.944,13.408,13.408,0,0,1-13.254.643,13.245,13.245,0,0,1-5.674-5.211,1.527,1.527,0,0,0-2.771.072,15.917,15.917,0,0,1-9.677,8.217,15.7,15.7,0,0,1-17.75-7.153c-.487-.854-1.978-1.358-2.579-.27a16.2,16.2,0,0,1-8.968,7.5,15.634,15.634,0,0,1-17.011-5.272,1.534,1.534,0,0,0-2.116-.222,15.8,15.8,0,0,1-16.229,1.358,14.748,14.748,0,0,1-7.928-13.7,15.1,15.1,0,0,1,2.969-8.824,1.515,1.515,0,0,0-1.058-2.386A12.024,12.024,0,0,1,68.891,68.33c-1.407-5.013,1.262-10.026,5.746-12.424a11.153,11.153,0,0,1,8.055-1.166,1.53,1.53,0,0,0,2.032-1.647,20.18,20.18,0,0,1,5.885-14.9A19.99,19.99,0,0,1,115.265,35.7c1.617,1.052,3.4-1.364,1.779-2.422h0Z" transform="translate(-26.124 -6.935)" fill="#1d1d1b"/>
      <path id="Path_831" data-name="Path 831" d="M88.441,111.173a19.292,19.292,0,0,0,11.138,11.1,18.767,18.767,0,0,0,15.67-1.256,18.992,18.992,0,0,0,6.666-6.161l-2.38.06c7.778,8.662,21.621,10.242,31.659,4.725a23.342,23.342,0,0,0,7.321-6.233l-2.579-.27a19.1,19.1,0,0,0,12.2,12.04,18.867,18.867,0,0,0,22.823-10.8l-1.948.854a14.682,14.682,0,0,0,13.314.078,14.213,14.213,0,0,0,7.61-11.156,14.406,14.406,0,0,0-1.274-7.8c-.836-1.743-3.576-.511-2.741,1.238a11.753,11.753,0,0,1-.433,10.777,11.4,11.4,0,0,1-9.317,5.494,11.568,11.568,0,0,1-6.071-1.425,1.518,1.518,0,0,0-1.948.854,16.107,16.107,0,0,1-10.771,9.281,15.528,15.528,0,0,1-14.053-3.528,15.77,15.77,0,0,1-4.658-7.135,1.514,1.514,0,0,0-2.579-.27c-6.257,8.193-18.363,10.255-27.506,6.221a19.775,19.775,0,0,1-6.714-4.827,1.52,1.52,0,0,0-2.38.06,16.372,16.372,0,0,1-11.355,7.231,15.738,15.738,0,0,1-12.665-4.015,15.947,15.947,0,0,1-4.292-6.353c-.673-1.815-3.408-.571-2.741,1.238h0Z" transform="translate(-35.239 -38.099)" fill="#1d1d1b"/>
      <path id="Path_832" data-name="Path 832" d="M121.088,136.076,121.04,150.6a1.512,1.512,0,0,0,2.9.7l.854-1.707a1.516,1.516,0,0,0-.854-1.948,1.532,1.532,0,0,0-1.948.854l-.854,1.707,2.9.7.048-14.528a1.551,1.551,0,0,0-1.34-1.653,1.518,1.518,0,0,0-1.653,1.34h0Z" transform="translate(-48.285 -53.745)" fill="#1d1d1b"/>
      <path id="Path_833" data-name="Path 833" d="M145.348,125.96l1.545,23.767a1.519,1.519,0,0,0,1.731,1.238,1.543,1.543,0,0,0,1.238-1.731l-1.545-23.767a1.519,1.519,0,0,0-1.731-1.238,1.543,1.543,0,0,0-1.238,1.731h0Z" transform="translate(-57.98 -49.55)" fill="#1d1d1b"/>
      <path id="Path_834" data-name="Path 834" d="M181.077,135.9l2.332,15.863c.283,1.911,3.246,1.425,2.963-.493l-2.332-15.863c-.283-1.911-3.246-1.425-2.963.493Z" transform="translate(-72.227 -53.531)" fill="#1d1d1b"/>
      <path id="Path_835" data-name="Path 835" d="M206.866,135.38l1.389,15.857a1.523,1.523,0,0,0,1.731,1.238,1.539,1.539,0,0,0,1.238-1.731l-1.388-15.857a1.523,1.523,0,0,0-1.731-1.238,1.539,1.539,0,0,0-1.238,1.731Z" transform="translate(-82.519 -53.308)" fill="#1d1d1b"/>
      <path id="Path_836" data-name="Path 836" d="M249.307,134.76l.89,14.6a1.516,1.516,0,0,0,1.731,1.238,1.539,1.539,0,0,0,1.238-1.731l-.89-14.6a1.516,1.516,0,0,0-1.731-1.238,1.539,1.539,0,0,0-1.238,1.731Z" transform="translate(-99.451 -53.061)" fill="#1d1d1b"/>
      <path id="Path_837" data-name="Path 837" d="M283.06,117.528l2.723,17.654a1.518,1.518,0,0,0,2.885.3l1.022-2.2a1.5,1.5,0,0,0-2.8-1.094l-1.022,2.2,2.885.3-2.723-17.654a1.5,1.5,0,0,0-2.963.493h0Z" transform="translate(-112.911 -46.203)" fill="#1d1d1b"/>
      <path id="Path_838" data-name="Path 838" d="M95.613,132.508l-1.376,16.782c-.156,1.923,2.831,2.242,2.987.313L98.6,132.821c.156-1.923-2.831-2.242-2.987-.313Z" transform="translate(-37.59 -52.342)" fill="#1d1d1b"/>
      <path id="Path_839" data-name="Path 839" d="M106.616,139.04l.956,12.22A1.523,1.523,0,0,0,109.3,152.5a1.542,1.542,0,0,0,1.238-1.731l-.956-12.22a1.523,1.523,0,0,0-1.731-1.238,1.542,1.542,0,0,0-1.238,1.731Z" transform="translate(-42.529 -54.768)" fill="#1d1d1b"/>
      <path id="Path_840" data-name="Path 840" d="M158.253,137.4l1.791,16.53c.21,1.923,3.174,1.431,2.963-.493l-1.791-16.53c-.21-1.923-3.174-1.431-2.963.493Z" transform="translate(-63.125 -54.129)" fill="#1d1d1b"/>
      <path id="Path_841" data-name="Path 841" d="M132.268,131.54l1.046,19.535a1.516,1.516,0,0,0,1.731,1.238,1.543,1.543,0,0,0,1.238-1.731l-1.046-19.535a1.516,1.516,0,0,0-1.731-1.238,1.543,1.543,0,0,0-1.238,1.731Z" transform="translate(-52.762 -51.776)" fill="#1d1d1b"/>
      <path id="Path_842" data-name="Path 842" d="M192.412,136.013l3.048,17.4a1.5,1.5,0,0,0,2.963-.493l-3.048-17.4a1.5,1.5,0,0,0-2.963.493Z" transform="translate(-76.745 -53.58)" fill="#1d1d1b"/>
      <path id="Path_843" data-name="Path 843" d="M234.169,142.294l1.425,9.81a1.525,1.525,0,0,0,1.731,1.238,1.548,1.548,0,0,0,1.238-1.731l-1.425-9.81a1.525,1.525,0,0,0-1.731-1.238,1.548,1.548,0,0,0-1.238,1.731Z" transform="translate(-93.407 -56.062)" fill="#1d1d1b"/>
      <path id="Path_844" data-name="Path 844" d="M259.155,123.99l1.316,14.636a1.511,1.511,0,0,0,1.731,1.238l1.082-.325a1.556,1.556,0,0,0,1.238-1.731,1.519,1.519,0,0,0-1.731-1.238l-1.082.325,1.731,1.238L262.124,123.5a1.5,1.5,0,1,0-2.969.493Z" transform="translate(-103.378 -48.764)" fill="#1d1d1b"/>
      <path id="Path_845" data-name="Path 845" d="M290.546,98l2.278,26.784a1.519,1.519,0,0,0,1.731,1.238,1.542,1.542,0,0,0,1.238-1.731l-2.278-26.784a1.519,1.519,0,0,0-1.731-1.238A1.542,1.542,0,0,0,290.546,98Z" transform="translate(-115.9 -38.396)" fill="#1d1d1b"/>
      <path id="Path_846" data-name="Path 846" d="M301.631,105.3l1.893,15.791c.228,1.917,3.2,1.425,2.963-.493L304.595,104.8c-.228-1.917-3.2-1.425-2.963.493h0Z" transform="translate(-120.32 -41.323)" fill="#1d1d1b"/>
      <path id="Path_847" data-name="Path 847" d="M353.54,132.327l-.992,18.045c-.108,1.923,2.885,2.248,2.987.313l.992-18.045c.108-1.923-2.885-2.248-2.987-.313Z" transform="translate(-140.635 -52.268)" fill="#1d1d1b"/>
      <path id="Path_848" data-name="Path 848" d="M354.106,136.766l59-.126,16.476-.036a1.547,1.547,0,0,0,1.653-1.34,1.518,1.518,0,0,0-1.34-1.653l-59,.126-16.476.036a1.547,1.547,0,0,0-1.653,1.34,1.518,1.518,0,0,0,1.34,1.653Z" transform="translate(-140.72 -53.299)" fill="#1d1d1b"/>
      <path id="Path_849" data-name="Path 849" d="M477.34,135.228l-1.893,23.977c-.15,1.923,2.837,2.242,2.987.313l1.893-23.977c.15-1.923-2.837-2.242-2.987-.313Z" transform="translate(-189.66 -53.427)" fill="#1d1d1b"/>
      <path id="Path_850" data-name="Path 850" d="M354.4,162.346a410.654,410.654,0,0,0,58.131,6.732q8.313.37,16.644.391a1.551,1.551,0,0,0,1.653-1.34,1.518,1.518,0,0,0-1.34-1.653,410.513,410.513,0,0,1-58.359-4.37q-8.241-1.208-16.416-2.759a1.519,1.519,0,0,0-1.653,1.34,1.536,1.536,0,0,0,1.34,1.653h0Z" transform="translate(-140.839 -63.558)" fill="#1d1d1b"/>
      <path id="Path_851" data-name="Path 851" d="M354.769,15.113a24.033,24.033,0,0,0-16.56,2.693,23.777,23.777,0,0,0-9.647,30.685,24.039,24.039,0,0,0,12.124,11.6,24.289,24.289,0,0,0,18.423.2,26.216,26.216,0,0,0,12.965-11.084,25.733,25.733,0,0,0,3.27-17.317,23.735,23.735,0,0,0-8.932-15.027,22.075,22.075,0,0,0-16.572-4.412,20.651,20.651,0,0,0-13.951,8.6,19.81,19.81,0,0,0-1.978,3.558c-.769,1.779,2.032,2.867,2.8,1.094a17.783,17.783,0,0,1,10.417-9.5,18.525,18.525,0,0,1,14.6,1.226c9.714,4.953,13.326,17.221,9.341,27.067-4.039,9.99-15.1,16.524-25.811,13.975a21.411,21.411,0,0,1-12.214-8.313,20.273,20.273,0,0,1-3.534-14.5,20.581,20.581,0,0,1,7.207-13.236,21.015,21.015,0,0,1,13.945-4.8,21.227,21.227,0,0,1,3.8.457,1.514,1.514,0,0,0,1.653-1.34,1.54,1.54,0,0,0-1.34-1.653h0Z" transform="translate(-130.179 -4.877)" fill="#1d1d1b"/>
      <path id="Path_852" data-name="Path 852" d="M328.668,34.6a24.753,24.753,0,0,0,12.5,18.315,24.312,24.312,0,0,0,32.014-8.728,1.552,1.552,0,0,0-.325-2.1,1.517,1.517,0,0,0-2.1.325,21.918,21.918,0,0,1-17.113,10.381,20.657,20.657,0,0,1-17.7-8.259A21.016,21.016,0,0,1,331.625,34.1c-.228-1.917-3.192-1.425-2.963.493h0Z" transform="translate(-131.103 -13.12)" fill="#1d1d1b"/>
      <path id="Path_853" data-name="Path 853" d="M379.226,65.327l4.184,11.348a1.516,1.516,0,0,0,1.99.751,1.537,1.537,0,0,0,.751-1.99l-4.184-11.349a1.516,1.516,0,0,0-1.99-.751,1.537,1.537,0,0,0-.751,1.99Z" transform="translate(-151.234 -25.216)" fill="#1d1d1b"/>
      <path id="Path_854" data-name="Path 854" d="M363.337,61.3l2.873,19.03a1.5,1.5,0,0,0,2.963-.493L366.3,60.805a1.5,1.5,0,0,0-2.963.493Z" transform="translate(-144.932 -23.772)" fill="#1d1d1b"/>
      <path id="Path_855" data-name="Path 855" d="M352.126,76.324l.739-17.263a1.518,1.518,0,0,0-1.142-1.6,1.487,1.487,0,0,0-1.749.9l-.631,2.182a1.541,1.541,0,0,0,.854,1.948,1.512,1.512,0,0,0,1.948-.854l.631-2.182-2.9-.7-.739,17.263c-.084,1.923,2.909,2.248,2.987.313Z" transform="translate(-139.276 -22.906)" fill="#1d1d1b"/>
      <path id="Path_856" data-name="Path 856" d="M336.357,65.034l2.362-10.627a1.514,1.514,0,0,0-1.34-1.653,1.544,1.544,0,0,0-1.653,1.34l-2.362,10.627a1.514,1.514,0,0,0,1.34,1.653,1.544,1.544,0,0,0,1.653-1.34Z" transform="translate(-132.973 -21.041)" fill="#1d1d1b"/>
      <path id="Path_857" data-name="Path 857" d="M388.288,62.217l4.676,6.594a1.517,1.517,0,0,0,2.116.222,1.54,1.54,0,0,0,.222-2.116l-4.676-6.594a1.517,1.517,0,0,0-2.116-.222,1.54,1.54,0,0,0-.222,2.116Z" transform="translate(-154.766 -23.844)" fill="#1d1d1b"/>
    </g>
  </g>
</svg>
